<svg width="25" height="24" viewBox="0 0 25 24" fill="none" xmlns="http://www.w3.org/2000/svg">
<path d="M19.7682 5.33005C18.4382 4.71005 16.9982 4.26005 15.4982 4.00005C15.485 3.99963 15.4719 4.00209 15.4598 4.00728C15.4477 4.01246 15.4369 4.02023 15.4282 4.03005C15.2482 4.36005 15.0382 4.79005 14.8982 5.12005C13.3072 4.88005 11.6892 4.88005 10.0982 5.12005C9.95816 4.78005 9.74816 4.36005 9.55816 4.03005C9.54816 4.01005 9.51816 4.00005 9.48816 4.00005C7.98816 4.26005 6.55816 4.71005 5.21816 5.33005C5.20816 5.33005 5.19816 5.34005 5.18816 5.35005C2.46816 9.42005 1.71816 13.38 2.08816 17.3C2.08816 17.32 2.09816 17.34 2.11816 17.35C3.91816 18.67 5.64816 19.47 7.35816 20C7.38816 20.01 7.41816 20 7.42816 19.98C7.82816 19.43 8.18816 18.85 8.49816 18.24C8.51816 18.2 8.49816 18.16 8.45816 18.15C7.88816 17.93 7.34816 17.67 6.81816 17.37C6.77816 17.35 6.77816 17.29 6.80816 17.26C6.91816 17.18 7.02816 17.09 7.13816 17.01C7.15816 16.99 7.18816 16.99 7.20816 17C10.6482 18.57 14.3582 18.57 17.7582 17C17.7782 16.99 17.8082 16.99 17.8282 17.01C17.9382 17.1 18.0482 17.18 18.1582 17.27C18.1982 17.3 18.1982 17.36 18.1482 17.38C17.6282 17.69 17.0782 17.94 16.5082 18.16C16.4682 18.17 16.4582 18.22 16.4682 18.25C16.7882 18.86 17.1482 19.44 17.5382 19.99C17.5682 20 17.5982 20.01 17.6282 20C19.3482 19.47 21.0782 18.67 22.8782 17.35C22.8982 17.34 22.9082 17.32 22.9082 17.3C23.3482 12.77 22.1782 8.84005 19.8082 5.35005C19.7982 5.34005 19.7882 5.33005 19.7682 5.33005ZM9.01816 14.91C7.98816 14.91 7.12816 13.96 7.12816 12.79C7.12816 11.62 7.96816 10.67 9.01816 10.67C10.0782 10.67 10.9182 11.63 10.9082 12.79C10.9082 13.96 10.0682 14.91 9.01816 14.91ZM15.9882 14.91C14.9582 14.91 14.0982 13.96 14.0982 12.79C14.0982 11.62 14.9382 10.67 15.9882 10.67C17.0482 10.67 17.8882 11.63 17.8782 12.79C17.8782 13.96 17.0482 14.91 15.9882 14.91Z" fill="#A9ACAC"/>
</svg>
