<svg width="25" height="24" viewBox="0 0 25 24" fill="none" xmlns="http://www.w3.org/2000/svg">
<path d="M12.4922 2C10.5144 2 8.58098 2.58649 6.93649 3.6853C5.292 4.78412 4.01027 6.3459 3.2534 8.17317C2.49652 10.0004 2.29849 12.0111 2.68434 13.9509C3.07019 15.8907 4.0226 17.6725 5.42112 19.0711C6.81965 20.4696 8.60148 21.422 10.5413 21.8079C12.4811 22.1937 14.4918 21.9957 16.319 21.2388C18.1463 20.4819 19.7081 19.2002 20.8069 17.5557C21.9057 15.9112 22.4922 13.9778 22.4922 12C22.4922 10.6868 22.2335 9.38642 21.731 8.17317C21.2284 6.95991 20.4918 5.85752 19.5633 4.92893C18.6347 4.00035 17.5323 3.26375 16.319 2.7612C15.1058 2.25866 13.8054 2 12.4922 2ZM15.6722 17.152C15.6349 17.2454 15.578 17.3298 15.5054 17.3994C15.4328 17.469 15.3461 17.5223 15.2512 17.5556C15.1562 17.589 15.0553 17.6016 14.9551 17.5927C14.8549 17.5838 14.7577 17.5536 14.6702 17.504L11.9552 15.394L10.2132 17.002C10.1728 17.0319 10.1255 17.0511 10.0757 17.0579C10.0259 17.0647 9.97516 17.0589 9.92819 17.041L10.2622 14.052L10.2722 14.061L10.2792 14.002C10.2792 14.002 15.1642 9.554 15.3632 9.365C15.5652 9.176 15.4982 9.135 15.4982 9.135C15.5102 8.905 15.1372 9.135 15.1372 9.135L8.66419 13.299L5.96919 12.381C5.96919 12.381 5.55519 12.233 5.51619 11.906C5.47519 11.582 5.98219 11.406 5.98219 11.406L16.6992 7.148C16.6992 7.148 17.5802 6.756 17.5802 7.406L15.6722 17.152Z" fill="#A9ACAC"/>
</svg>
