<svg xmlns="http://www.w3.org/2000/svg" width="27" height="32" viewBox="0 0 27 32" fill="none">
<path d="M24.0253 25.9435C25.498 25.9435 26.6919 27.1374 26.6919 28.6102C26.6919 30.0829 25.498 31.2768 24.0253 31.2768C22.5525 31.2768 21.3586 30.0829 21.3586 28.6102C21.3586 27.1374 22.5525 25.9435 24.0253 25.9435ZM1 0.677735L0.999995 18.6102L-4.97416e-06 18.6102L0 0.677734L1 0.677735ZM10.5 28.1102L24.0253 28.1102L24.0253 29.1102L10.5 29.1102L10.5 28.1102ZM0.999995 18.6102C0.999994 23.8569 5.25329 28.1102 10.5 28.1102L10.5 29.1102C4.70101 29.1102 -6.55651e-06 24.4092 -4.97416e-06 18.6102L0.999995 18.6102Z" fill="#806626"/>
</svg>