<svg width="43" height="61" viewBox="0 0 43 61" fill="none" xmlns="http://www.w3.org/2000/svg">
<path id="Vector 27" d="M40 0.333333C38.5272 0.33334 37.3333 1.52725 37.3333 3.00001C37.3333 4.47277 38.5273 5.66667 40 5.66667C41.4728 5.66666 42.6667 4.47275 42.6667 2.99999C42.6667 1.52723 41.4727 0.333326 40 0.333333ZM3.00025 55.3335C1.52749 55.3335 0.33359 56.5274 0.333597 58.0002C0.333604 59.473 1.52752 60.6669 3.00028 60.6668C4.47304 60.6668 5.66694 59.4729 5.66693 58.0002C5.66693 56.5274 4.47301 55.3335 3.00025 55.3335ZM39.5 3L39.5002 48L40.5002 48L40.5 3L39.5 3ZM30.0003 57.5L3.00026 57.5002L3.00027 58.5002L30.0003 58.5L30.0003 57.5ZM39.5002 48C39.5002 53.2467 35.247 57.5 30.0003 57.5L30.0003 58.5C35.7993 58.5 40.5002 53.799 40.5002 48L39.5002 48Z" fill="#806626"/>
</svg>
