<svg xmlns="http://www.w3.org/2000/svg" width="40" height="55" viewBox="0 0 40 55" fill="none">
  <path d="M36.3918 0.0833333C34.9191 0.0833404 33.7252 1.27725 33.7252 2.75001C33.7252 4.22277 34.9191 5.41667 36.3919 5.41667C37.8646 5.41666 39.0585 4.22275 39.0585 2.74999C39.0585 1.27723 37.8646 0.0833262 36.3918 0.0833333ZM2.87291 49.4306C1.40015 49.4306 0.206255 50.6246 0.206262 52.0973C0.206269 53.5701 1.40018 54.764 2.87294 54.764C4.3457 54.764 5.5396 53.57 5.53959 52.0973C5.53959 50.6245 4.34567 49.4306 2.87291 49.4306ZM35.8918 2.75L35.892 42.0973L36.892 42.0972L36.8918 2.75L35.8918 2.75ZM26.392 51.5973L2.87293 51.5973L2.87293 52.5973L26.392 52.5973L26.392 51.5973ZM35.892 42.0973C35.8921 47.344 31.6388 51.5973 26.392 51.5973L26.392 52.5973C32.191 52.5973 36.8921 47.8963 36.892 42.0972L35.892 42.0973Z" fill="#806626"/>
</svg>