<svg xmlns="http://www.w3.org/2000/svg" width="40" height="55" viewBox="0 0 40 55" fill="none">
  <path d="M2.86513 0.0833333C4.33788 0.0833404 5.53179 1.27725 5.53178 2.75001C5.53177 4.22277 4.33786 5.41667 2.8651 5.41667C1.39234 5.41666 0.198438 4.22275 0.198446 2.74999C0.198453 1.27723 1.39237 0.0833262 2.86513 0.0833333ZM36.8494 49.4306C38.3221 49.4306 39.516 50.6246 39.516 52.0973C39.516 53.5701 38.3221 54.764 36.8493 54.764C35.3766 54.764 34.1827 53.57 34.1827 52.0973C34.1827 50.6245 35.3766 49.4306 36.8494 49.4306ZM12.8649 52.0973L12.8649 51.5973L12.8649 52.0973ZM3.36511 2.75L3.36492 42.0973L2.36492 42.0972L2.36511 2.75L3.36511 2.75ZM12.8649 51.5973L36.8493 51.5973L36.8493 52.5973L12.8649 52.5973L12.8649 51.5973ZM3.36492 42.0973C3.3649 47.344 7.6182 51.5973 12.8649 51.5973L12.8649 52.5973C7.06591 52.5973 2.36489 47.8963 2.36492 42.0972L3.36492 42.0973Z" fill="#806626"/>
</svg>