<svg xmlns="http://www.w3.org/2000/svg" width="117" height="58" viewBox="0 0 117 58" fill="none">
  <path d="M3.62867 0.915365C5.10143 0.915372 6.29534 2.10928 6.29533 3.58204C6.29532 5.0548 5.10141 6.24871 3.62865 6.2487C2.15589 6.24869 0.961988 5.05478 0.961995 3.58202C0.962002 2.10926 2.15592 0.915357 3.62867 0.915365ZM113.962 52.1248C115.434 52.1248 116.628 53.3187 116.628 54.7915C116.628 56.2643 115.434 57.4582 113.962 57.4582C112.489 57.4582 111.295 56.2642 111.295 54.7915C111.295 53.3187 112.489 52.1248 113.962 52.1248ZM13.6285 54.7915L13.6285 54.2915L13.6285 54.7915ZM4.12866 3.58203L4.12846 44.7914L3.12846 44.7914L3.12866 3.58203L4.12866 3.58203ZM13.6285 54.2915L113.962 54.2915L113.962 55.2915L13.6285 55.2915L13.6285 54.2915ZM4.12846 44.7914C4.12844 50.0382 8.38174 54.2915 13.6285 54.2915L13.6285 55.2915C7.82945 55.2915 3.12844 50.5905 3.12846 44.7914L4.12846 44.7914Z" fill="#806626"/>
</svg>