<svg width="22" height="59" viewBox="0 0 22 59" fill="none" xmlns="http://www.w3.org/2000/svg">
<path id="Vector 23" d="M3.00026 0.333333C4.47302 0.33334 5.66692 1.52725 5.66691 3.00001C5.6669 4.47277 4.47299 5.66667 3.00023 5.66667C1.52747 5.66666 0.33357 4.47275 0.333577 2.99999C0.333584 1.52723 1.5275 0.333326 3.00026 0.333333ZM19 53.3334C20.4728 53.3334 21.6667 54.5273 21.6667 56.0001C21.6666 57.4728 20.4727 58.6668 19 58.6667C17.5272 58.6667 16.3333 57.4728 16.3333 56.0001C16.3333 54.5273 17.5272 53.3334 19 53.3334ZM3.50024 3L3.50004 46L2.50004 46L2.50024 3L3.50024 3ZM13 55.5L19 55.5001L19 56.5001L13 56.5L13 55.5ZM3.50004 46C3.50001 51.2467 7.75329 55.5 13 55.5L13 56.5C7.201 56.5 2.50001 51.799 2.50004 46L3.50004 46Z" fill="#806626"/>
</svg>
