<svg xmlns="http://www.w3.org/2000/svg" width="28" height="32" viewBox="0 0 28 32" fill="none">
  <path d="M3.49999 25.9435C2.02723 25.9435 0.833328 27.1374 0.833335 28.6102C0.833342 30.0829 2.02725 31.2768 3.50001 31.2768C4.97277 31.2768 6.16667 30.0829 6.16667 28.6102C6.16666 27.1374 4.97275 25.9435 3.49999 25.9435ZM26.5253 0.677735L26.5253 18.6102L27.5253 18.6102L27.5253 0.677734L26.5253 0.677735ZM17.0253 28.1102L3.5 28.1102L3.5 29.1102L17.0253 29.1102L17.0253 28.1102ZM26.5253 18.6102C26.5253 23.8569 22.272 28.1102 17.0253 28.1102L17.0253 29.1102C22.8243 29.1102 27.5253 24.4092 27.5253 18.6102L26.5253 18.6102Z" fill="#806626"/>
</svg>