<svg width="23" height="59" viewBox="0 0 23 59" fill="none" xmlns="http://www.w3.org/2000/svg">
<path id="Vector 22" d="M19.5405 0.333333C18.0678 0.33334 16.8739 1.52725 16.8739 3.00001C16.8739 4.47277 18.0678 5.66667 19.5405 5.66667C21.0133 5.66666 22.2072 4.47275 22.2072 2.99999C22.2072 1.52723 21.0133 0.333326 19.5405 0.333333ZM3.54077 53.3334C2.06801 53.3334 0.87411 54.5273 0.874117 56.0001C0.874124 57.4728 2.06804 58.6668 3.5408 58.6667C5.01355 58.6667 6.20746 57.4728 6.20745 56.0001C6.20744 54.5273 5.01353 53.3334 3.54077 53.3334ZM19.0405 3L19.0407 46L20.0407 46L20.0405 3L19.0405 3ZM9.54078 55.5L3.54078 55.5001L3.54079 56.5001L9.54079 56.5L9.54078 55.5ZM19.0407 46C19.0408 51.2467 14.7875 55.5 9.54078 55.5L9.54079 56.5C15.3398 56.5 20.0408 51.799 20.0407 46L19.0407 46Z" fill="#806626"/>
</svg>
