<svg width="43" height="61" viewBox="0 0 43 61" fill="none" xmlns="http://www.w3.org/2000/svg">
<path id="Vector 26" d="M3.00026 0.333333C4.47302 0.33334 5.66692 1.52725 5.66691 3.00001C5.6669 4.47277 4.47299 5.66667 3.00023 5.66667C1.52747 5.66666 0.33357 4.47275 0.333577 2.99999C0.333584 1.52723 1.5275 0.333326 3.00026 0.333333ZM40 55.3335C41.4728 55.3335 42.6667 56.5274 42.6666 58.0002C42.6666 59.473 41.4727 60.6669 40 60.6668C38.5272 60.6668 37.3333 59.4729 37.3333 58.0002C37.3333 56.5274 38.5272 55.3335 40 55.3335ZM3.50024 3L3.50003 48L2.50003 48L2.50024 3L3.50024 3ZM13 57.5L40 57.5002L40 58.5002L13 58.5L13 57.5ZM3.50003 48C3.5 53.2467 7.75328 57.5 13 57.5L13 58.5C7.20099 58.5 2.5 53.799 2.50003 48L3.50003 48Z" fill="#806626"/>
</svg>
