<svg xmlns="http://www.w3.org/2000/svg" width="114" height="58" viewBox="0 0 114 58" fill="none">
  <path d="M110.371 0.915365C108.899 0.915372 107.705 2.10928 107.705 3.58204C107.705 5.0548 108.899 6.24871 110.371 6.2487C111.844 6.24869 113.038 5.05478 113.038 3.58202C113.038 2.10926 111.844 0.915357 110.371 0.915365ZM3.29722 52.1248C1.82446 52.1248 0.630565 53.3187 0.630572 54.7915C0.630579 56.2643 1.82449 57.4582 3.29725 57.4582C4.77 57.4582 5.96391 56.2642 5.9639 54.7915C5.96389 53.3187 4.76998 52.1248 3.29722 52.1248ZM100.372 54.7915L100.372 54.2915L100.372 54.7915ZM109.871 3.58203L109.872 44.7914L110.872 44.7914L110.871 3.58203L109.871 3.58203ZM100.372 54.2915L3.29723 54.2915L3.29724 55.2915L100.372 55.2915L100.372 54.2915ZM109.872 44.7914C109.872 50.0382 105.618 54.2915 100.372 54.2915L100.372 55.2915C106.171 55.2915 110.872 50.5905 110.872 44.7914L109.872 44.7914Z" fill="#806626"/>
</svg>