<svg width="62" height="91" viewBox="0 0 62 91" fill="none" xmlns="http://www.w3.org/2000/svg">
<path id="Vector 24" d="M0.333333 3C0.333333 4.47276 1.52724 5.66667 3 5.66667C4.47276 5.66667 5.66667 4.47276 5.66667 3C5.66667 1.52724 4.47276 0.333333 3 0.333333C1.52724 0.333333 0.333333 1.52724 0.333333 3ZM55.8333 87.5C55.8333 88.9728 57.0272 90.1667 58.5 90.1667C59.9728 90.1667 61.1667 88.9728 61.1667 87.5C61.1667 86.0272 59.9728 84.8333 58.5 84.8333C57.0272 84.8333 55.8333 86.0272 55.8333 87.5ZM3 3.5H23V2.5H3V3.5ZM32.5 13V77.5H33.5V13H32.5ZM43 88H58.5V87H43V88ZM32.5 77.5C32.5 83.299 37.201 88 43 88V87C37.7533 87 33.5 82.7467 33.5 77.5H32.5ZM23 3.5C28.2467 3.5 32.5 7.75329 32.5 13H33.5C33.5 7.20101 28.799 2.5 23 2.5V3.5Z" fill="#BB9E53" fill-opacity="0.7"/>
</svg>
