<svg width="116" height="120" viewBox="0 0 116 120" fill="none" xmlns="http://www.w3.org/2000/svg">
<path id="Vector 10" d="M0.833333 3C0.833333 4.47276 2.02724 5.66667 3.5 5.66667C4.97276 5.66667 6.16667 4.47276 6.16667 3C6.16667 1.52724 4.97276 0.333333 3.5 0.333333C2.02724 0.333333 0.833333 1.52724 0.833333 3ZM109.833 117C109.833 118.473 111.027 119.667 112.5 119.667C113.973 119.667 115.167 118.473 115.167 117C115.167 115.527 113.973 114.333 112.5 114.333C111.027 114.333 109.833 115.527 109.833 117ZM3.5 3.5H102.5V2.5H3.5V3.5ZM112 13V117H113V13H112ZM102.5 3.5C107.747 3.5 112 7.75329 112 13H113C113 7.20101 108.299 2.5 102.5 2.5V3.5Z" fill="#806626"/>
</svg>
