<svg width="152" height="47" viewBox="0 0 152 47" fill="none" xmlns="http://www.w3.org/2000/svg">
<path id="Vector 14" d="M0.333333 3C0.333333 4.47276 1.52724 5.66667 3 5.66667C4.47276 5.66667 5.66667 4.47276 5.66667 3C5.66667 1.52724 4.47276 0.333333 3 0.333333C1.52724 0.333333 0.333333 1.52724 0.333333 3ZM146.333 44C146.333 45.4728 147.527 46.6667 149 46.6667C150.473 46.6667 151.667 45.4728 151.667 44C151.667 42.5272 150.473 41.3333 149 41.3333C147.527 41.3333 146.333 42.5272 146.333 44ZM3 3.5H139V2.5H3V3.5ZM148.5 13V44H149.5V13H148.5ZM139 3.5C144.247 3.5 148.5 7.75329 148.5 13H149.5C149.5 7.20101 144.799 2.5 139 2.5V3.5Z" fill="#806626"/>
</svg>
