<svg width="152" height="47" viewBox="0 0 152 47" fill="none" xmlns="http://www.w3.org/2000/svg">
<path id="Vector 15" d="M0.333333 44C0.333333 42.5272 1.52724 41.3333 3 41.3333C4.47276 41.3333 5.66667 42.5272 5.66667 44C5.66667 45.4728 4.47276 46.6667 3 46.6667C1.52724 46.6667 0.333333 45.4728 0.333333 44ZM146.333 3C146.333 1.52724 147.527 0.333332 149 0.333332C150.473 0.333332 151.667 1.52724 151.667 3C151.667 4.47276 150.473 5.66667 149 5.66667C147.527 5.66667 146.333 4.47276 146.333 3ZM3 43.5H139V44.5H3V43.5ZM148.5 34V3H149.5V34H148.5ZM139 43.5C144.247 43.5 148.5 39.2467 148.5 34H149.5C149.5 39.799 144.799 44.5 139 44.5V43.5Z" fill="#806626"/>
</svg>
