<svg width="116" height="120" viewBox="0 0 116 120" fill="none" xmlns="http://www.w3.org/2000/svg">
<path id="Vector 11" d="M0.833333 117C0.833333 115.527 2.02724 114.333 3.5 114.333C4.97276 114.333 6.16667 115.527 6.16667 117C6.16667 118.473 4.97276 119.667 3.5 119.667C2.02724 119.667 0.833333 118.473 0.833333 117ZM109.833 3C109.833 1.52724 111.027 0.333336 112.5 0.333336C113.973 0.333336 115.167 1.52724 115.167 3C115.167 4.47276 113.973 5.66666 112.5 5.66666C111.027 5.66666 109.833 4.47276 109.833 3ZM3.5 116.5H102.5V117.5H3.5V116.5ZM112 107V3H113V107H112ZM102.5 116.5C107.747 116.5 112 112.247 112 107H113C113 112.799 108.299 117.5 102.5 117.5V116.5Z" fill="#806626"/>
</svg>
