<svg width="12" height="13" viewBox="0 0 12 13" fill="none" xmlns="http://www.w3.org/2000/svg">
<g id="ep:d-arrow-left">
<path id="Vector" d="M5.7961 10.7496C5.7643 10.7822 5.72628 10.8082 5.68429 10.8259C5.6423 10.8437 5.59718 10.8528 5.5516 10.8528C5.50602 10.8528 5.4609 10.8437 5.41891 10.8259C5.37691 10.8082 5.3389 10.7822 5.3071 10.7496C5.24191 10.6827 5.20543 10.5929 5.20543 10.4995C5.20543 10.406 5.24191 10.3163 5.3071 10.2493L8.96185 6.50084L5.3071 2.75159C5.2742 2.71791 5.24826 2.67808 5.23075 2.63437C5.21325 2.59066 5.20453 2.54393 5.20508 2.49685C5.20564 2.44977 5.21547 2.40326 5.234 2.35998C5.25253 2.31669 5.27941 2.27748 5.3131 2.24459C5.34519 2.21323 5.38314 2.18851 5.4248 2.17184C5.46645 2.15517 5.51098 2.14687 5.55584 2.14743C5.60071 2.14799 5.64502 2.15739 5.68624 2.17509C5.72747 2.19279 5.7648 2.21845 5.7961 2.25059L9.6826 6.23909C9.75086 6.30912 9.78906 6.40305 9.78906 6.50084C9.78906 6.59863 9.75086 6.69256 9.6826 6.76259L5.7961 10.7496ZM2.7961 10.7496C2.7643 10.7822 2.72628 10.8082 2.68429 10.8259C2.6423 10.8437 2.59718 10.8528 2.5516 10.8528C2.50602 10.8528 2.4609 10.8437 2.41891 10.8259C2.37691 10.8082 2.3389 10.7822 2.3071 10.7496C2.24191 10.6827 2.20543 10.5929 2.20543 10.4995C2.20543 10.406 2.24191 10.3163 2.3071 10.2493L5.96185 6.50084L2.3071 2.75159C2.2742 2.71791 2.24826 2.67808 2.23075 2.63437C2.21325 2.59066 2.20453 2.54393 2.20508 2.49685C2.20564 2.44977 2.21547 2.40326 2.234 2.35998C2.25253 2.31669 2.27941 2.27748 2.3131 2.24459C2.34519 2.21323 2.38314 2.18851 2.4248 2.17184C2.46645 2.15517 2.51098 2.14687 2.55584 2.14743C2.60071 2.14799 2.64502 2.15739 2.68624 2.17509C2.72747 2.19279 2.7648 2.21845 2.7961 2.25059L6.6826 6.23909C6.75086 6.30912 6.78906 6.40305 6.78906 6.50084C6.78906 6.59863 6.75086 6.69256 6.6826 6.76259L2.7961 10.7496Z" fill="#A9ACAC"/>
</g>
</svg>
