<svg width="24" height="24" viewBox="0 0 24 24" fill="none" xmlns="http://www.w3.org/2000/svg">
<g id="octicon:play-24">
<path id="Vector" d="M8.41584 9.5H15.5838C15.6735 9.50015 15.7615 9.52442 15.8386 9.57026C15.9157 9.61611 15.979 9.68184 16.022 9.76057C16.0649 9.83931 16.0859 9.92814 16.0827 10.0178C16.0795 10.1074 16.0523 10.1945 16.0038 10.27L12.4208 15.846C12.3756 15.9166 12.3133 15.9747 12.2398 16.0149C12.1662 16.0552 12.0837 16.0763 11.9998 16.0763C11.916 16.0763 11.8335 16.0552 11.7599 16.0149C11.6863 15.9747 11.6241 15.9166 11.5788 15.846L7.99484 10.27C7.94641 10.1945 7.91917 10.1074 7.91599 10.0178C7.9128 9.92814 7.93378 9.83931 7.97672 9.76057C8.01967 9.68184 8.083 9.61611 8.16008 9.57026C8.23716 9.52442 8.32516 9.50015 8.41484 9.5H8.41584Z" fill="#F6EED6" fill-opacity="0.6"/>
<path id="Vector_2" d="M12 1C18.075 1 23 5.925 23 12C23 18.075 18.075 23 12 23C5.925 23 1 18.075 1 12C1 5.925 5.925 1 12 1ZM22 12C22 9.48044 20.7816 6.7816 19 5C17.2184 3.2184 14.5196 2 12 2C9.48044 2 6.7816 3.2184 5 5C3.2184 6.7816 2 9.48044 2 12C2 14.5196 3.2184 17.2184 5 19C6.7816 20.7816 9.48044 22 12 22C14.5196 22 17.2184 20.7816 19 19C20.7816 17.2184 22 14.5196 22 12Z" fill="#F6EED6" fill-opacity="0.6"/>
</g>
</svg>
