<svg viewBox="0 0 98 98" fill="none" xmlns="http://www.w3.org/2000/svg">
<g id="Scroll">
<g id="Group 21" filter="url(#filter0_f_1927_10401)">
<path id="Vector 1" d="M59.3113 48.8795L48.9955 39.0996L38.6797 48.8795L48.9955 58.6593L59.3113 48.8795Z" fill="#CEF6CC" fill-opacity="0.1" stroke="#87E986"/>
<path id="Vector 2" d="M77 48.8793L49 22.334L21 48.8793L49 75.4247L77 48.8793Z" fill="#CEF6CC" fill-opacity="0.1" stroke="#87E986" stroke-width="0.5"/>
</g>
<g id="Group 20" filter="url(#filter1_d_1927_10401)">
<path id="Vector 1_2" d="M55.0262 49.0014L48.9975 42.9727L42.9688 49.0014L48.9975 55.0301L55.0262 49.0014Z" fill="#3CDD4C" stroke="#3CDD4C"/>
<path id="Vector 2_2" d="M65.364 49.0004L49.0004 32.6367L32.6367 49.0004L49.0004 65.364L65.364 49.0004Z" stroke="#3CDD4C" stroke-width="0.5"/>
</g>
<g id="Group 23" opacity="0.3" filter="url(#filter2_f_1927_10401)">
<path id="Vector 1_3" d="M63.7315 48.9986L48.9947 34.2617L34.2578 48.9986L48.9947 63.7354L63.7315 48.9986Z" fill="#3CDD4C" stroke="#87E986"/>
<path id="Vector 2_3" d="M89 49L49 9L9 49L49 89L89 49Z" stroke="#87E986" stroke-width="0.5"/>
</g>
</g>
<defs>
<filter id="filter0_f_1927_10401" x="12.6367" y="13.9893" width="72.7266" height="69.7803" filterUnits="userSpaceOnUse" color-interpolation-filters="sRGB">
<feFlood flood-opacity="0" result="BackgroundImageFix"/>
<feBlend mode="normal" in="SourceGraphic" in2="BackgroundImageFix" result="shape"/>
<feGaussianBlur stdDeviation="4" result="effect1_foregroundBlur_1927_10401"/>
</filter>
<filter id="filter1_d_1927_10401" x="28.2832" y="32.2832" width="41.4346" height="41.4346" filterUnits="userSpaceOnUse" color-interpolation-filters="sRGB">
<feFlood flood-opacity="0" result="BackgroundImageFix"/>
<feColorMatrix in="SourceAlpha" type="matrix" values="0 0 0 0 0 0 0 0 0 0 0 0 0 0 0 0 0 0 127 0" result="hardAlpha"/>
<feOffset dy="4"/>
<feGaussianBlur stdDeviation="2"/>
<feComposite in2="hardAlpha" operator="out"/>
<feColorMatrix type="matrix" values="0 0 0 0 0 0 0 0 0 0 0 0 0 0 0 0 0 0 0.25 0"/>
<feBlend mode="normal" in2="BackgroundImageFix" result="effect1_dropShadow_1927_10401"/>
<feBlend mode="normal" in="SourceGraphic" in2="effect1_dropShadow_1927_10401" result="shape"/>
</filter>
<filter id="filter2_f_1927_10401" x="0.646484" y="0.646484" width="96.707" height="96.707" filterUnits="userSpaceOnUse" color-interpolation-filters="sRGB">
<feFlood flood-opacity="0" result="BackgroundImageFix"/>
<feBlend mode="normal" in="SourceGraphic" in2="BackgroundImageFix" result="shape"/>
<feGaussianBlur stdDeviation="4" result="effect1_foregroundBlur_1927_10401"/>
</filter>
</defs>
</svg>
