<svg width="73" height="68" viewBox="0 0 73 68" fill="none" xmlns="http://www.w3.org/2000/svg">
<g id="Group 1352">
<g id="Polygon 8">
<path d="M35.0247 0.833187C35.9403 0.316111 37.0597 0.316112 37.9753 0.833188L58.1727 12.24C60.8584 13.7568 59.7819 17.8522 56.6975 17.8522H16.3025C13.2181 17.8522 12.1416 13.7568 14.8273 12.24L35.0247 0.833187Z" fill="black" fill-opacity="0.7"/>
<path d="M35.7624 2.13928C36.2201 1.88075 36.7799 1.88075 37.2376 2.13928L57.4351 13.5461C58.7779 14.3045 58.2397 16.3522 56.6975 16.3522H16.3025C14.7603 16.3522 14.2221 14.3045 15.5649 13.5461L35.7624 2.13928Z" stroke="#14FF00" stroke-opacity="0.7" stroke-width="3"/>
</g>
<g id="Polygon 10">
<path d="M35.0247 22.4719C35.9403 21.9548 37.0597 21.9548 37.9753 22.4719L58.1727 33.8787C60.8584 35.3955 59.7819 39.4909 56.6975 39.4909H16.3025C13.2181 39.4909 12.1416 35.3955 14.8273 33.8787L35.0247 22.4719Z" fill="black" fill-opacity="0.7"/>
<path d="M35.7624 23.778C36.2201 23.5194 36.7799 23.5194 37.2376 23.778L57.4351 35.1848C58.7779 35.9432 58.2397 37.9909 56.6975 37.9909H16.3025C14.7603 37.9909 14.2221 35.9432 15.5649 35.1848L35.7624 23.778Z" stroke="#14FF00" stroke-opacity="0.7" stroke-width="3"/>
</g>
<g id="Polygon 11">
<path d="M35.0247 44.1115C35.9403 43.5944 37.0597 43.5944 37.9753 44.1115L58.1727 55.5183C60.8584 57.0351 59.7819 61.1305 56.6975 61.1305H16.3025C13.2181 61.1305 12.1416 57.0351 14.8273 55.5184L35.0247 44.1115Z" fill="black" fill-opacity="0.7"/>
<path d="M35.7624 45.4176C36.2201 45.1591 36.7799 45.1591 37.2376 45.4176L57.4351 56.8244C58.7779 57.5828 58.2397 59.6305 56.6975 59.6305H16.3025C14.7603 59.6305 14.2221 57.5828 15.5649 56.8244L35.7624 45.4176Z" stroke="#14FF00" stroke-opacity="0.7" stroke-width="3"/>
</g>
</g>
</svg>
